/* XPM */
static char *_34c600c78104fa0fa42b9ebc9ecb9e8JHaM1AnCxy6oAE5S[] = {
/* columns rows colors chars-per-pixel */
"32 32 85 1 ",
"  c None",
". c #653100",
"X c #663100",
"o c #663200",
"O c #6F3704",
"+ c #763C07",
"@ c #7F3C03",
"# c #793D06",
"$ c #7D3D05",
"% c #7F3E06",
"& c #853F04",
"* c #864005",
"= c #874206",
"- c #884005",
"; c #894105",
": c #804209",
"> c #81440B",
", c #83440A",
"< c #83460C",
"1 c #86470C",
"2 c #8D480B",
"3 c #88490E",
"4 c #8B4B0E",
"5 c #8A4B0F",
"6 c #924507",
"7 c #994707",
"8 c #914B0D",
"9 c #904D0F",
"0 c #964D0E",
"q c #954E0E",
"w c #9F4B08",
"e c #9F4C0A",
"r c #9A4D0D",
"t c #9A4F0E",
"y c #9F510F",
"u c #9D5210",
"i c #A34D08",
"p c #A24C0A",
"a c #A64E0A",
"s c #A04F0D",
"d c #A44F0C",
"f c #A3510E",
"g c #A0530F",
"h c #A4520E",
"j c #A8510D",
"k c #AF520C",
"l c #AA540F",
"z c #B0510A",
"x c #B3530C",
"c c #B6550C",
"v c #B6560C",
"b c #B9540B",
"n c #BC550B",
"m c #BF570B",
"M c #BA560C",
"N c #B9580D",
"B c #BD580D",
"V c #A15410",
"C c #A45410",
"Z c #B75B11",
"A c #C3590D",
"S c #C45B0D",
"D c #C65A0C",
"F c #C05C0E",
"G c #C15C0E",
"H c #C95C0D",
"J c #CA5D0D",
"K c #CD5F0E",
"L c #CE600E",
"P c #D3610E",
"I c #D7640F",
"U c #DA640F",
"Y c #C46011",
"T c #C86111",
"R c #CD6210",
"E c #D06210",
"W c #D76410",
"Q c #D76712",
"! c #DE6912",
"~ c #E46911",
"^ c #E76B11",
"/ c #E86C12",
"( c #EB6E13",
") c #EE6E12",
"_ c #F17013",
/* pixels */
"        oooooooooooooooo        ",
"        *;;;;;;;;;;;;;;*        ",
"    ooo*MLLLLLLLLLLLLLLM*ooo    ",
"    *;;wK~~~~~~~~~~~~~~Kw;;*    ",
"  o*MLLKJJJJJJJJJJJJJJJJKLLM*o  ",
"  ;wK~~UDnnnnnnnnnnnnnnDU~~Kw;  ",
"5yGKJJJDnnnnnnnnnnnnnnnnDJJJKGy5",
"5CQ~JnnnnnnnnnnnnnnnnnnnnnnJ~QC5",
"5CQ~JnnnnnnnnnnnnnnnnnnnnnnJ~QC5",
"5uYEAnnnnnnnnnnnnnnnnnnnnnnAEYu5",
"59ulcnnnnnnnnnnnnnnnnnnnnnnclu95",
"55<2dkkxbnnnnnnnnnnnnnnbxkkd2<55",
"5<+#200sxnnnnnnnnnnnnnnxs002#+<5",
"51$$:>>2dkkkkkkkkkkkkkkd2>>:$$15",
"58e7$OO#2000000000000002#OO$7e85",
"50ja6;;*>>>>>>>>>>>>>>>>*&@;ij05",
"  0hGLLc*OOOOOOOOOOOOOO*cDzit0  ",
"  5CQ__Ii;;;;;;;;;;;;;;iI~Jk05  ",
"  5CQ__/ILLLLLLLLLLLLLLI/~Jk05  ",
"  5CQ____________________~Jk05  ",
"  5CQ____________________~Jk05  ",
"  5VT!/________________)~QBj05  ",
"    VZ!________________~PBf0    ",
"    5CQ________________~Jk05    ",
"    5CQ________________~Jk05    ",
"    5fR~)____________)~UDk05    ",
"    5tNP~____________~PDnk05    ",
"    50jBQ~~~~~~~~~~~~UDbxj05    ",
"      0fBJJJJJJJJJJJJDnxs0      ",
"      50jkkkkkkkkkkkkkkj05      ",
"        0000000000000000        ",
"        5555555555555555        "
};
