/* XPM */
static char *result[] = {
/* columns rows colors chars-per-pixel */
"32 32 190 2 ",
"   c #1453AE",
".  c #235CB7",
"X  c #2F68B9",
"o  c #356CBF",
"O  c #125ED4",
"+  c #1D67C8",
"@  c #2966C1",
"#  c #2464CB",
"$  c #326FC5",
"%  c #2671CE",
"&  c #3977C7",
"*  c #3772CE",
"=  c #3C75CE",
"-  c #256FDC",
";  c #2868DC",
":  c #336CD4",
">  c #346EDD",
",  c #2F73D5",
"<  c #2C74DF",
"1  c #3575D5",
"2  c #3A72D1",
"3  c #3F7DD5",
"4  c #3977DC",
"5  c #367DDE",
"6  c #3D7DDC",
"7  c #1A5EE6",
"8  c #1A68EE",
"9  c #346FE0",
"0  c #2F73EB",
"q  c #2D7BE9",
"w  c #3374E4",
"e  c #367CE4",
"r  c #3C7BE3",
"t  c #377CEF",
"y  c #3B7DEC",
"u  c #246FF7",
"i  c #2B7EF9",
"p  c #3477F4",
"a  c #357FF4",
"s  c #3C7FF6",
"d  c #4371C0",
"f  c #4276CA",
"g  c #467CCE",
"h  c #547EC7",
"j  c #4074D5",
"k  c #457CD4",
"l  c #427CDC",
"z  c #427DE5",
"x  c #3C80D8",
"c  c #3B82E3",
"v  c #3782EB",
"b  c #3C83EC",
"n  c #3D83F2",
"m  c #3A88F1",
"M  c #3784F8",
"N  c #4B83CD",
"B  c #5A87CC",
"V  c #5B8DCD",
"C  c #4782D4",
"Z  c #4C84D3",
"A  c #4482DD",
"S  c #4D82DD",
"D  c #4C89DD",
"F  c #5485D4",
"G  c #548BD5",
"H  c #5B8AD5",
"J  c #5187DB",
"K  c #528ADD",
"L  c #5A8EDE",
"P  c #5D91D3",
"I  c #5791DC",
"U  c #5C92DE",
"Y  c #6697CF",
"T  c #6896CF",
"R  c #6492D7",
"E  c #6C96D4",
"W  c #6A9AD4",
"Q  c #6495DB",
"!  c #6996DB",
"~  c #6399DC",
"^  c #6C9CDB",
"/  c #729DD6",
"(  c #749EDC",
")  c #6FA0DB",
"_  c #7BA6D6",
"`  c #77A5DE",
"'  c #7BA5DA",
"]  c #7DA8DB",
"[  c #4583E4",
"{  c #4B82E6",
"}  c #4D8AE6",
"|  c #4384E9",
" . c #4B83EA",
".. c #4589EC",
"X. c #4D8CEB",
"o. c #5286E2",
"O. c #538DE3",
"+. c #5A8EE0",
"@. c #548DEB",
"#. c #4D91ED",
"$. c #5291E5",
"%. c #5D94E3",
"&. c #5E99E4",
"*. c #5192EB",
"=. c #5B95EC",
"-. c #5C9BED",
";. c #4182F3",
":. c #418BF5",
">. c #4B8DF2",
",. c #4C8FF9",
"<. c #528EF3",
"1. c #4C92F3",
"2. c #4F9AF8",
"3. c #5394F3",
"4. c #5C96F4",
"5. c #539AF7",
"6. c #5D9CF5",
"7. c #5B97F8",
"8. c #559BFA",
"9. c #5D9CF8",
"0. c #6394E4",
"q. c #6399E3",
"w. c #6B9CE4",
"e. c #6597EA",
"r. c #6A96E8",
"t. c #659CEC",
"y. c #6A9EEB",
"u. c #709FE2",
"i. c #6196F2",
"p. c #649BF3",
"a. c #699DF3",
"s. c #609EF9",
"d. c #5FA1F5",
"f. c #5FA1F8",
"g. c #6DA1E6",
"h. c #66A1EE",
"j. c #6BA3EB",
"k. c #74A4E4",
"l. c #7AA6E4",
"z. c #76A8E5",
"x. c #7CA9E3",
"c. c #72A4EB",
"v. c #7AA6EA",
"b. c #74AAEE",
"n. c #7BACEC",
"m. c #7EB0EC",
"M. c #65A3F3",
"N. c #6BA3F4",
"B. c #6EA9F6",
"V. c #69A7F8",
"C. c #73A5F4",
"Z. c #74ABF5",
"A. c #7BACF4",
"S. c #75A3F9",
"D. c #79A8FA",
"F. c #77B0F6",
"G. c #7EB1F3",
"H. c #7AB0F8",
"J. c #80A5DC",
"K. c #82ACDD",
"L. c #83ADE3",
"P. c #8BAFE3",
"I. c #82ADEA",
"U. c #85B1E4",
"Y. c #8DB5E4",
"T. c #84B2EB",
"R. c #8BB5EC",
"E. c #8EB9ED",
"W. c #91B7E4",
"Q. c #94BAE6",
"!. c #94BBEC",
"~. c #99BEEC",
"^. c #81ACF4",
"/. c #84B4F4",
"(. c #8CB5F5",
"). c #86B9F6",
"_. c #8DBAF5",
"`. c #88B6F8",
"'. c #93BCF4",
"]. c #98BEF5",
"[. c #9CC2EE",
"{. c #95C1F5",
"}. c #9CC3F5",
"|. c #A3C6ED",
" X c #A6CAEF",
".X c #A1C6F4",
"XX c #A5CAF4",
"oX c #AACDF4",
"OX c #AED1F5",
"+X c #B4D4F5",
/* pixels */
"/.*.{.s T.{.{.XX!.t.u.+X+X].U.^ c.&.N.+X8.+XR.~.v.g.{.[ X.,.a.,.",
"p.A.;.OX+X.X}.'.+Xz +X'..X! N { 0.R.y c.M.+XXXW.^ R y k 4.XX9.B.",
"C.y Z.'.Z.+XZ.+XG.c.R.c./ (.+X+X8.+Xv q.`._.+Xc._.g.T.T.s.o..Xz ",
"7.n.XX<.A.S./.T.+X1.a.M.{.+X( +X+X .A.V.V.}.(.E.! %.z.K _.N.+XL ",
"(.X. ./.X.B.%.F /.~.#.|.X.e.A j.U {.7.t.s._.z.t./.k.'.L.C.0 {.N.",
"E o.+Xv o.F.{.+XE.+XA 4.+.6 t.%...b.6.f./.|.w.9./.'.R.H : }./.m.",
"c.v.%.Q :.{.).~.XX+X}.: I.v.+X} d.V U.).~.O.m.N.s.g +XC.c.+X_.+X",
"|.~ = 0.~.l.Q Z.{.OX)._.oX0.b.~.).` j.b.- R.oXN.a.5 I.e k i.a.+X",
"oX' ( ~.}.q.F +Xc.G.+X+XR Z.n.A.oXv.g.}.6 X.c.8 g.O t.E.z P.x.OX",
"A (.) [.1 >.k..X+Xb.F.U.+XOXI._.v E.k.5 w R.4.u s # 7 y.Q.k ^.Q.",
"n.; { L oXoXW G Y W.H.'.3.oXoXz...-.OXp.C.D L.N.o.;.z.G g L.+.r.",
"a p.Z.q.OXV.#.Z.L D K.=.'.3./.OXb.G.H.-.n.A.L.%.2.3.....@.g.l l ",
"r.0 M 1 /._ ).XXg K.!._.).OX+XF k ^ L.^.Q ` Z.}.-.j...4.<.N.U T.",
"].A.*.m ^ A.B.t.!./.0 +X X{.m.E.[.x d {.' B 9.N.k.6 q M./.}.g./.",
"S ].w.5.f E.+X'.T.| q.D +XE. X|.}., +Xa.J.Z.4.}.{ e J y.XX/.v.+X",
"+XoXoX3 +XOX+XU T.Z T.k.+X.XQ }.A.A.Z h I N.M p.r.G.C E.oXY.1.Q.",
"XXG.b *.$.Q.+XW.~.>._.^ n.g.oX^.q.>.L {.L o ! } [ Z < 5.}.|.|.X ",
"XXC._.% A.G K._ Y.h.q.+Xg.U.^ +X%.~.U.+X'.A : 4 1.h./.m @ 6.< +X",
"E.M.>.3.%.'.+X+Xq.E.+X+XOX) .X(.B }.b.A.' l.I.b. XG.m._.b.D K.q.",
"#.+Xi [ B.P .X` Y.L |.] Y.XXOX].a.g.A.1.p.X.Q @.=.x.b.C.).U.XX] ",
"J #.F.Z.{.XX) ) +Xn.'.'.( (.^.N.!.OX`.p.T.Q.X.3.+X! V } v.V.oX'.",
"!.x Z w.+X} G [.'.G.'.'.XXXX+X].XX+XXX+XQ.0.z ^ 3 b D R _.h.oXx.",
"oXm }.z.T.A I.w 0.Z +XE.{..X+XC._.].}.v.k.^./.... * f N m.Y.E C.",
"Z oXx m.d.j.^.G..XF !..XoXoXA.+X'.'.'.'.1.6 /./.e.[.8.C G.&.c & ",
"+ U.K.$ Q.Z  Xz.~.! /.c.XX+X+X+X+X].XX8.s.W.u.+Xt.R.V [.' ~.+X/.",
"O.P }.w.[.w.c.z. .  W.a..X+XD.=.(.A.^.{.+X/ Q Z l.| P.[ ' _.A.}.",
"Z.+XD.L.t _.J @.O.F w.E.( +Xy.a.OXA./.XXoXW.{.XX_.K.l.|.T W.XX+X",
"` /.+X.X{ 2 0.(.b ).+X> u.5.i.e.`.OX0.S.}.+X! ,.oX~ oXA.+Xp.v.&.",
"XXoXl.'.'.].e.+X'.C.} ~.~.}.+XT.+X<.r.XX+Xc.~.s.K 0.~ >.H +.z # ",
"l.&.|.'.+Xv.'.+X+X+X|.i.^.|.C.:.^.4.XX(.e.OX'.*.+XK P.| 9 k j w.",
"3 l.@.r +X].+X].OXA.R.l.o.|./ D ] X.*.+XXX/._.w. XL.4 p.j E.P.+.",
"M.T.n.1.>.'..Xp +X_.S.+X{.+XXXn '.c.=.+XH |.(.f 2 O l z '.>.o.+X"
};
