/* XPM */
static char *_12cff53f407466eedcdf5c79df19d84jZAsSy40y6YJ67C8[] = {
/* columns rows colors chars-per-pixel */
"128 96 7 1 ",
"  c #05580C",
". c #027416",
"X c #018419",
"o c #00901A",
"O c #01C024",
"+ c #70C001",
"@ c #01C05B",
/* pixels */
"............................................................................................OOO.................................",
"...............................................OO...................++....................OOoo..............................@@@.",
"..... ....... ........................ ......OOoo...................oo++++...............Oooo..............................@oX..",
".... .....  ............OOO............ ....Oooo......+++++..........ooooo+.............OooX..............................@oXX..",
"......++...............Ooo..................oooX.....+oo+.............ooooo+............ooX...........OOOO....... ........oX....",
"......oo++...........OOoo...................oXX.....+oooo....  .......oooooo...... .....oX.............XooO..............o......",
".......oooo.........OoooX..........  ......o........oooX...   ........Xoooooo...........oX..............Xoo..............o......",
".......oooo........ooooX...................o... ...oooX............ ...Xooooo...........X..................o.............o..  ..",
"........oooo.......oooX....................o   ....ooX.................Xoooooo.........o...............  ..o......OOOOO..o  ....",
"........Xooo......oooX..... ............... ......ooX...................XXoooo.........o...  ............  o.....Ooooo... ......",
".........Xooo....oooX..............+++............oX......................Xooo.........o.   ....................Oooooo..........",
"..........Xooo...ooX................oo++.........o...  ....................XXo.........o ........... ..........OoooX............",
"..... ....XXoo..o....................ooo+........o.  ............@@@@...... ..o................................OooX.............",
"...........XXo..o.. .................Xooo........o  .........+++..ooo@......  o.....................OO.........ooX..............",
"........... ..o.o. ...................Xoo...O.... .........++oo....Xoo@...... o.....................ooO........oX.  ...... .....",
"............ .o.o  O......... .........Xo...oO............+oooo.....Xoo.............................oooO......o.   .............",
"............  o....oO....... ..........Xo...ooO...........oooX.......Xo.............. ..............oooO......o  ...............",
"...................ooOO................Xoo..XooO.........oooX.........o..............................oooO..... .............@@@@",
"....................oooO................Xo...XXoO........ooX...........o..... .........OO............XXooO.................@ooo.",
"..OOO...............oooo................Xo.....Xoo......ooX............o.............OOo..............XoooO................@oX..",
"...ooO....... ..  ..Xoooo................o......Xo......ooX............o............Ooo................XooO...............@oX...",
"....ooOO......   ....Xooo................o.......o......oX.............o...........Ooo..................Xoo..............@oX....",
".....ooo.... ........Xooo.............. ..o.......o.....o............ .o..........Ooo...................Xoo..............ooX....",
".....Xooo.............XXo............OOOO.o.......o....o..  .......... o.........Ooo.....................Xo..............oX.....",
"......Xooo........++....o...........Oooo. o.......o....o.  ........... o........OooX.......................o.......  ....X......",
".......Xoo......++oo.. ..o.........OooX.. o.......o....o ......................OooX....... ................o....... ....o.   ...",
"........Xo......ooo.... .o.........oXX.......... .o.... .......................oXX... ..... ............ ..o............o  .....",
".........X......o......  o.........X............ .o............................X...  .................... .o...........  .......",
"........ .o....o. ...... o........o.. ........... o....................  .....o..  ......................  o....................",
"......... o....o .................o. ...... ..................................o. ...............................................",
"......... o.......................o  ...... ..................................o ................................................",
"..................................  .......................................... .................................................",
"................................................................................................................................",
"@@@.......................... ...........................OO....................   ..............................................",
".oo@@....................... ....@@@...... .. ..........Oo...................................+++............ ...................",
".oooooo........ ..................oo@@.....    ........Ooo............ ............. ......++oo.......................OOOOO.....",
"..XXoooo......  ...................ooo....... .......OOooo......OOO..  ...OOO.............+ooX...........@@........OOOoooo......",
"....XXoo...... ......................o...... .......OooooX.......ooO.......ooOO...........ooX.......  ..@o......OOOoooooo.......",
"......Xo....  ..........@@........  ..o...........OOooooX........XoO........XooO..........oX........ ..@oo.....Oooooooooo.......",
"........o... .........@@o........... .o..........OooooooX.........XoO........XooO........o.............oo......Ooooooooo........",
"..... ..o............@ooo...........  o.........OoooooXX..........XoO.........XXoO.......o............o.......Ooooooo...........",
"......  o...........@ooX.......................OooooXX.............Xo...........Xo.......o.. .........o.. ....ooooo.............",
"....... o..........@ooX.......................OooXX..................o... ........o......o. ..........o  .....oooo..............",
"..................@oXX...................+++..oX......... ...........o...  .......o......o  .......... .......oo................",
"..................oX.......... .........+oo..o.........   ...........o.... .......o...... ...................o............... ..",
"..................X.......... .........+ooo..o...... .   ........ ...o............o..........................o.....    .........",
".................o....................oooo...o.....   ............  .o............o..........................o...    ...........",
".O...............o...................oooX....o...    .............. .o......... ..o.....................  ...o.     ....... ....",
".oO..............o...................ooX.....o..   ................  o.......... .o........ ........... .....o  . ......... ....",
".ooO.............o...................ooX.....o.   ........  ..................+.  o....... ....... .... ..... ..................",
".oooOO...........o.  .....OOO.......ooX......o  ........... .................+o........... ... ... ........OOO....OOO...........",
"..ooooO..........o  .....Ooo........oX.......o ............. ...............+oo............ .. ... ......OOoo......ooO..........",
"..XoooO..........o .....Oooo........o........ ...............  ............+ooX............  ..........OOoooo.......ooO.........",
"...XoooO......... .....OooX........o.......................... ............oXX........................OoooX.........XooO........",
"...XoooO..............OooX.........o.....  ........+++.....................X...  ...+++...............ooXX...........XooO.......",
"...Xoooo... ..........oX...........o...  ...........oo++.............. ...o...  .....oo+..............oX..............XoO.......",
"....XXoo.... ........o.............o.  ..............Xoo+.................o.  ........Xo+............o.................Xo.......",
"......Xo.............o.............o  ................Xoo.................o ...........Xoo...........o.. ...............o.......",
"........o............o.  ......... o  .................Xo.................o ............Xo...........o.  ............ ...o......",
"...... .o............o. ...........  ..........  .. . ..o................. ..........  ...o..........o. ..............  .o......",
"....... o........... o ........................ ....   ..o............................. ..o..........o ................  o......",
"....... o............ ...............................    o.............................   o.......... ........ .................",
"........  .............................................. o......................................................................",
"................................................................................................................................",
"................................................................................................................................",
"............... ...................+++++........................................................................................",
"............... ....................oooo+...............................................  ........... ..........................",
".....@@@@...... ....................ooooo+............................ .........................................................",
"......ooo@...........................oooooo.  ..   .............. ... ..................................................@@@.....",
".......Xoo@.............OOOOO.........ooooo...  ......OOO.... ... ............+++++....................................@oo......",
"........XXo...........OOoooooOO.........ooo.. .......Ooo..... ... ...........+oooo........................OOOOO.......@ooX......",
"...........o........OOoooooo..............o.........Oooo.............. .....+oooo................... ....Ooooo........ooX.......",
"......   ..o.......Ooooooo................o........OooX............... ....+oooo..................... ..OooX.........o...   ....",
".........  o.......OooooX............ ....o.......ooXX............. .  ...+oooXX.................... ...oXX..........o   .......",
"... ..............OooooX..............   ..o......oX.....................+oooX............OOO..........o............. ..........",
"... .............OooooX..................  o.....o.... ........... . ....oooX............Ooo....... ...o.....   ................",
".................ooooX...........................o...  ..OOO.............ooX.............oX............o...   ..................",
".................oooXX...........................o.  ...Ooo..............oX..@@.........o..............o   .................. ..",
".................ooX...................OOO.......o  ...Ooo......... ....oX...oo@........o.    ......... ........................",
"......... .......oX.....................ooO...... ....Ooo.......... ....o.....oo........o  .....................................",
"....++.... .....o........................ooO.........OooX...............o.......o....... .......................................",
"....oo+... . ...o...........+++..........oooO........OoX...............o.....   o...............................................",
".....Xo++..... .o.....  ...+ooo+.........XoooO.......ooX...............o.....   o......................... .......+++...........",
"......Xoo.......o....  ...+ooo+...........Xooo.......oX..... ..........o...    ..........................  .....++ooooo.........",
".......Xo.......o..   ...o+ooo.............Xoo......o..+++.............o..   ............................ .....+oooooooo........",
".......Xo.......o.. .....ooooX.........+++.Xoo......o...oo++...........o    .................................++oooXXooooo.......",
"........o.......o.  .....oooX.........+oo...Xo......o.. oooo+..........o  ..........................................XXoooo......",
".....  ..o......o .......oXX........++ooo.....o.....o  .Xoooo..........o .....OOO............ ........................Xooo......",
"......  .o...... .......o...........oooX..  ..o.....o ...XXoo.......... .....Ooo...@@@...........@@@............. .....Xoo......",
"........ o..............o.... .....oooX....  .o..  . ......Xo...............Ooo.....oo@...........oo@...........     .....o.....",
"........................o..   .....ooX......  o.. ...........o.............OoXX......Xo@...........Xo@...........     ....o.....",
"........................o.  .......oX. ...... o........   ...o.............oX.........Xo............Xo..... ...... ..   ..o.....",
"........................o ........o..  ..................   .o............o...   ..   ..o.......... ..o.................  o.....",
"......... ......... .... .........o.  .....................  o............o..  ......   o......... .  o.........................",
"......... ........................o ......................................o  ...................................................",
".................................. ....................................... ....................................................."
};
