/* XPM */
static char *_85edef7a4bf416ce5e319961df421deLdyJX4v9tVbmiTFW[] = {
/* columns rows colors chars-per-pixel */
"32 32 206 2 ",
"   c #22362A",
".  c #2C3D35",
"X  c #2C373B",
"o  c #2D3B39",
"O  c #313E37",
"+  c #393A33",
"@  c #333438",
"#  c #343E38",
"$  c #3B3D3C",
"%  c #2C412F",
"&  c #2D4334",
"*  c #2F4A37",
"=  c #2E4038",
"-  c #2F483B",
";  c #314434",
":  c #384536",
">  c #344C35",
",  c #3A4D36",
"<  c #32433C",
"1  c #3D4439",
"2  c #354C3B",
"3  c #3B4D3B",
"4  c #2C5038",
"5  c #355136",
"6  c #3B5336",
"7  c #3C5B36",
"8  c #35523D",
"9  c #3C543C",
"0  c #365C3B",
"q  c #3D5B3C",
"w  c #396137",
"e  c #3D623E",
"r  c #3E683E",
"t  c #424C3B",
"y  c #494F3E",
"u  c #455537",
"i  c #415837",
"p  c #42533C",
"a  c #4A563B",
"s  c #425C3D",
"d  c #4C5D3D",
"f  c #43633E",
"g  c #4B673D",
"h  c #456C3D",
"j  c #496A3E",
"k  c #54643E",
"l  c #5C693E",
"z  c #4B723F",
"x  c #344541",
"c  c #3A4642",
"v  c #344D41",
"b  c #3C4B43",
"n  c #375243",
"m  c #3D5442",
"M  c #3C5B43",
"N  c #3C524A",
"B  c #3C5C4A",
"V  c #3E6442",
"C  c #3B6941",
"Z  c #3E634C",
"A  c #3F6C4B",
"S  c #414441",
"D  c #444C45",
"F  c #4A4A42",
"G  c #425444",
"H  c #495342",
"J  c #425C42",
"K  c #4A5B42",
"L  c #405E4B",
"P  c #4A5C48",
"I  c #525A4C",
"U  c #446442",
"Y  c #4B6443",
"T  c #456B43",
"R  c #4B6C43",
"E  c #43654B",
"W  c #466C4C",
"Q  c #4D6C49",
"!  c #526443",
"~  c #536C44",
"^  c #5B6C43",
"/  c #57644B",
"(  c #516C4A",
")  c #5B6A4A",
"_  c #457146",
"`  c #4C7344",
"'  c #477845",
"]  c #4F7D44",
"[  c #47724A",
"{  c #4C744A",
"}  c #47794D",
"|  c #4B7B4B",
" . c #537345",
".. c #5B7345",
"X. c #527B45",
"o. c #5B7B44",
"O. c #52744A",
"+. c #5C724B",
"@. c #537B4B",
"#. c #5A7C4A",
"$. c #446753",
"%. c #436C52",
"&. c #4F6C51",
"*. c #506E54",
"=. c #447052",
"-. c #497352",
";. c #4D7B52",
":. c #547354",
">. c #507F50",
",. c #5C7F51",
"<. c #50745B",
"1. c #657447",
"2. c #687546",
"3. c #657845",
"4. c #6A7946",
"5. c #617549",
"6. c #68774F",
"7. c #647C4A",
"8. c #6B7D4C",
"9. c #647654",
"0. c #4C8E4E",
"q. c #548446",
"w. c #5C8047",
"e. c #54834B",
"r. c #5A834C",
"t. c #57884D",
"y. c #5C8B4D",
"u. c #5F924F",
"i. c #4D8151",
"p. c #4E8A56",
"a. c #558754",
"s. c #5A8453",
"d. c #548A52",
"f. c #5B8C52",
"g. c #588B5E",
"h. c #569455",
"j. c #5D9354",
"k. c #569B53",
"l. c #599B57",
"z. c #54935D",
"x. c #5B9459",
"c. c #5B9E5B",
"v. c #64844C",
"b. c #6C844C",
"n. c #648C4D",
"m. c #6B894D",
"M. c #738146",
"N. c #74854A",
"B. c #748C4C",
"V. c #798E4E",
"C. c #63934E",
"Z. c #6A924F",
"A. c #75934C",
"S. c #668552",
"D. c #698454",
"F. c #628C52",
"G. c #6A8B52",
"H. c #678E58",
"J. c #778E54",
"K. c #639252",
"L. c #6D9554",
"P. c #659A55",
"I. c #6C9C54",
"U. c #6D955A",
"Y. c #639D5B",
"T. c #689D5C",
"R. c #729552",
"E. c #7B9352",
"W. c #749A55",
"Q. c #759D55",
"!. c #7A9C55",
"~. c #7B9D55",
"^. c #70945A",
"/. c #749D5B",
"(. c #6CA354",
"). c #62A35A",
"_. c #69A25A",
"`. c #74A656",
"'. c #7BA354",
"]. c #72A854",
"[. c #73A35A",
"{. c #76A55B",
"}. c #72AF5A",
"|. c #518A63",
" X c #639C6A",
".X c #7B9C60",
"XX c #62A46E",
"oX c #69A86C",
"OX c #72A460",
"+X c #70B366",
"@X c #7CBD64",
"#X c #8B9752",
"$X c #819E53",
"%X c #8B9D59",
"&X c #8EA357",
"*X c #94A056",
"=X c #84B15C",
"-X c #8EB45F",
";X c #8FB95F",
":X c #97BC5F",
">X c #A2AF5F",
",X c #8AAB60",
"<X c #91AE63",
"1X c #80B360",
"2X c #8FB064",
"3X c #86B860",
/* pixels */
"d ..s  .K R m #.R a.U m j.< ).e.2 J R.Y E a.2 Y 2 s 7.v.6 , K 5.",
"1.^ #.d n.8 R 6 h ` I.` { > J q q.s w.1Xr.2 U.X.F.!.< !.V.B.K 7.",
"V.N.n.s ` q f e O.I.` U U 9 J [ U a.U @.R #.;X-X!.#.^ 3...%X..4.",
"8., ~ s j T 7 j e s v R o.r.Y O.!  .9 R 9 U m #.i , B.d ; N.4.d ",
"> R.6 6 R ` @.9 f {.r.o w.m.! OX! S.1 t {.r.v.Y . &X^ d ^ 7.*XE.",
"> v.R ` _ {.Q.U q F. .p ! ..+ W.^ H L.G ! `.s v.<XE.5.p V.*Xi 8.",
",X> X., w.Z.r.'.O.9 # p p y R.Q.Y Y p b.3 f.R G R.3 s Y m.$Xu 7.",
"R 3X4 U T U R f s 9 t 1 J.+ K m ` O.J < 9 K Q p  .~ Y w.$XK ..~ ",
"U ` J s.O.!.#.U e K +.$ k +.R U 6 ` y.R ` v.#.6.A.p y.5 9 R I. .",
"f f O.@.  J j.X.a.L.y y t #.X.f 2 Y 9 9 m P K ! H ^ 5 X. .I.w.` ",
"r.2 m s 2 E @.X.@ H t c s p 9 F.n.q 2 U m @ D Y , ~  .t.2 q 6 R ",
"r.M K.r.O.Y , _.oXg.D ( # ..T q w.f o.3 1 t $ I ) d  .q h U T = ",
"T T r ; T.Q K.[ B 2 a.s.L.f.C.q z @.Y y t 7.F H / a 9 6 f y.0 9 ",
"& < q F.J f.2 n M B E @.J s ] T J X.` ,.! 9.^.) / Y s f V R o.] ",
"q R U & j Y.T M X N E T 9 q X.g.J @.( +.@ 6.+.2X.X#.y.m & J f > ",
"J T.5 o f.T B -.Z B n V @.M e.v W v G :.#.d O.9.9 9 5 #./.s  .R ",
"` X.| 9 f K.q 8 E Z x A | E d.b x XX-.:.&.Q @.q F.{ ` ` G r.v.f.",
"` h r.s M K.m V c.=.B } a.l.;.N z.N |.B f.r.T Y G.M Y e U n.Y f ",
"R _ T < (.8 M i.%.E m Z d.C k.h.Z z.N c <. Xw.J C.9 5 q { f ` K.",
"w ` @.G y.e.8 -.Z E E m d.C k.).0.-.$.N $.E U R 9 f 0 r.x Z.9 U ",
"R Y J U n.5 { >.W U @XU p.2 ' C _ L B N %.E m x ].` t.f 9 _ r.y.",
"q < < ( #.u.Y b *.P K O d.e q | M M E %.M 2 r.F.j q R n.u..  .{ ",
"v.v.S.R.+.P c ..K S 1 t { f C 0 9 R j.E | ;.j.T f @.I.` ` * { R ",
"b.E.2.p d +.K ..5.D.G.w.I.5 2 J X.R d.n a.U T | r.P.J 0 C.t.T :X",
"u >Xa ! R 7.1 K /.Y Q ! T M y.#.Y ( > f a.| x.| 0 T f.U c s.( & ",
"V.d 2.! 6 u +.H.( Y  .Y ` @.Y p ( # K.@.` T e.[.2 M ; 9 J F.( ~ ",
"k K 8.3.! , G.u < M f.` ` T @.U K.G +XX.P.E C 2 | R _ q U Y o.k ",
"^ 5.7.V. .. , s }.r [ e x.h Y  .J { n.K.x.E y.` f.O.- q b t V.^ ",
"l ^ K d 9 R =Xg ` U R [.c.Y.` 9 f R [.s e.@.`  .M r.#.&XY : p 6 ",
"7.Y ..K g % f X.s U < f 5 q w.j.T.< q O.` f.` R j 9 k ..%Xa d k ",
"^ ~ ! p  .f o > R Q < ` [ T q @.W.M ` t.w.#.#.s > s 5.Y 4.! ^ #X",
"..d b.#.j f > s J x < l.#.` R q U 9 R R P q.` m  .R R ~ b.M.p j "
};
