/* XPM */
static char *_03412625ce849a8df4b704110cb8ae30a0m1YqDfiXYiROw[] = {
/* columns rows colors chars-per-pixel */
"32 32 65 1 ",
"  c #04620F",
". c #046210",
"X c #036411",
"o c #036913",
"O c #046912",
"+ c #036C13",
"@ c #036F14",
"# c #027215",
"$ c #027416",
"% c #057615",
"& c #027917",
"* c #057816",
"= c #027C17",
"- c #057C16",
"; c #097915",
": c #0C7B14",
"> c #0C7C14",
", c #027618",
"< c #02791A",
"1 c #027C18",
"2 c #027B1C",
"3 c #027D1D",
"4 c #058017",
"5 c #0C8015",
"6 c #088717",
"7 c #0C8516",
"8 c #088817",
"9 c #0B8D17",
"0 c #028319",
"q c #018519",
"w c #048618",
"e c #02831D",
"r c #01841C",
"t c #008A19",
"y c #018C1A",
"u c #138213",
"i c #178012",
"p c #168612",
"a c #168A13",
"s c #168C14",
"d c #1D8B12",
"f c #1A8C13",
"g c #00931B",
"h c #01941B",
"j c #01931C",
"k c #00961C",
"l c #009B1D",
"z c #159615",
"x c #1D9413",
"c c #2B900E",
"v c #2B960F",
"b c #218C11",
"n c #249010",
"m c #209612",
"M c #2B9910",
"N c #2A9C10",
"B c #028223",
"V c #028423",
"C c #018724",
"Z c #018B26",
"A c #018F25",
"S c #028928",
"D c #028F2A",
"F c #019329",
"G c #029030",
/* pixels */
"$###$$&$$#$q1;:$$d>$$$ty$$$$$$<D",
"$pi#$y0$$#$y$xp@$8z$#$t$$qy$#$e$",
"$&t$&g$$##&@&q#@#&y=$$&#$#=$11$@",
"$$q=q&#$:v$#=#$$$$00$&O#$##&k0#$",
"$#&=&$$#$q5&##;nDZ#$$$$$$t$0&$#$",
"$$##&y$#$&=h#$64$0$$$#$$$h&#@$#G",
"0q$##g$$$$1&0$q$$&$#$g&$$1g$$$S0",
"$y$@#0&$$q0$&$$$$$$$y=$$$$q$$$r$",
"$&0$M#&$1t$$&&+$$$$1t##$$$&$@###",
"$$$&##$$&##$$#$$$##&+##$$$#$$##$",
"2$$$$$$#@##$$$&$$$$##$$$$$$$$$$$",
"Ae$#$$$#DB@o$&t$$#$###:v$$$#$0t$",
"$t$o$<<$$=$@1l1$l#qj$$7&$#D&ll=$",
"$@&#$F1$##$&kq$$10$1q$&#$1$ty=$$",
"$#$$C1$#$%nq&#@$#&o$&$#$$##0&#$#",
"&$$$&$$#$44&oo#$o&##&$#$$$@& @##",
"y1$$&#1$$q$$X$@##$$u#$+##@=$$&#$",
"1l$$#&g$$&$#$$#o$$>6$$###qg=&h$$",
"$g##$q&$&@+$:M%$$#&o#M*$$1$$$1q$",
"$$&#$$#$#o$#@$-$$$##$#-$$$#$$+&$",
"$@$$$@$$$$$#$X$$$$$$$@$$$#$#$#$$",
"$$##$$$$:c$$$$$$$$$$$$$$$$$$$$$$",
"$DB@$$1$$ya##&$###$;:$@$$#$$$,3$",
"$$r$$kgq$&q@#h$###$x5$$$$#yy$Ve$",
"#@#$ty&$$#&$01$$#oft$$1$##q#$#o$",
"#$$$t0$$$##$&ok$##wV$$q$#&o+$#$#",
"$>##0$$:$&k$@y=$@$=e$$+@$#$$$$$$",
"$s>#&opm$$qq$q$#$&#.&$#$$$+$v5$$",
"$$&$#@91$pp0$5N%$& $$$$#$$#bqy&$",
"$@&$#$=#$9@&@#0-$##g3D$#D2$$X$1$",
"$$#$#$#@&#$###o&$$0&#3$$$e#$oX&$",
"$$#$#$#$##$$$$#$$$#@##$$#$$$$$#$"
};
