/* XPM */
static char *a7ef96a5e32d41ecdc30e2506cd89516bGYULP7XDdZBaUyG[] = {
/* columns rows colors chars-per-pixel */
"32 32 66 1 ",
"  c None",
". c #564B4B",
"X c #6E9C56",
"o c #71A158",
"O c #75A75A",
"+ c #76A75C",
"@ c #76A85C",
"# c #77A95D",
"$ c #77AA5C",
"% c #78AB5D",
"& c #7BB160",
"* c #7CB160",
"= c #7DB361",
"- c #7EB361",
"; c #82BA65",
": c #83BC66",
"> c #84BD66",
", c #85BF67",
"< c #8DB17A",
"1 c #CFBC61",
"2 c #8AC66A",
"3 c #8AC76A",
"4 c #8CC172",
"5 c #D8C56C",
"6 c #B6BEB4",
"7 c #ABC79D",
"8 c #BACCB1",
"9 c #BACDB1",
"0 c #C1CBB1",
"q c #C3CFBE",
"w c #CBCFBB",
"e c #CDCEBE",
"r c #C2C8C0",
"t c #C3CBC1",
"y c #C8CDC7",
"u c #C8CEC7",
"i c #C9CEC8",
"p c #C9CFC8",
"a c #CCD6C7",
"s c #CBD1CA",
"d c #CED5CB",
"f c #CFD5CC",
"g c #CFD4CF",
"h c #D0D4CF",
"j c #D1D9CD",
"k c #D0D4D0",
"l c #D1D5D0",
"z c #D2D5D1",
"x c #D3D6D2",
"c c #D5D8D4",
"v c #D6D9D5",
"b c #D7D9D6",
"n c #D8DAD7",
"m c #D8DBD7",
"M c #D8DAD8",
"N c #D9DBD8",
"B c #DADBD9",
"V c #DBDCDA",
"C c #DBDCDB",
"Z c #DCDDDB",
"A c #DCDDDC",
"S c #DDDDDC",
"D c #DEDFDE",
"F c #DFDFDE",
"G c #DFE0DF",
"H c #E1E1E1",
/* pixels */
"             .                  ",
"            .H.                 ",
"           .HH.                 ",
"      ...  .HHH. ...            ",
"      .HH...AZH..HHH.           ",
"      .HAAH.ivB.GBmHH.          ",
"       .AlBHyliBhtt..           ",
"        .ilew07dt6.             ",
"         .6659756t.             ",
"        .HBg617<HB..            ",
"       .HHAiq9<tgHCB.           ",
"      .HHCi66ajHHvHZ.           ",
"      .HZv6..mm>.BvHH.          ",
"      .Hm6..ZZl>+.AvH.          ",
"       .i. .HZ.4+...y.          ",
"        .  .Hl..>+...           ",
"            .s..>@..3.          ",
"             . .>@..3.          ",
"               .3=..>.          ",
"               .3=..&.          ",
"               .3=.>@.          ",
"                .:>;.           ",
"                .>=X.           ",
"                .>@.            ",
"                .>@.            ",
"                .3@.            ",
"                .3%.            ",
"                .3O.            ",
"                 .o.            ",
"                 .X.            ",
"                 .X.            ",
"                  .             "
};
