/* XPM */
static char *_4c429c1f1b743bdee01536f1c97a6e8tqe7EqMBmYE6ZT2Z[] = {
/* columns rows colors chars-per-pixel */
"32 32 51 1 ",
"  c gray6",
". c #101010",
"X c #161616",
"o c gray10",
"O c #1D1D1D",
"+ c gray13",
"@ c gray15",
"# c #282828",
"$ c #2F2F2F",
"% c gray19",
"& c #373737",
"* c gray22",
"= c #3C3C3C",
"- c #414141",
"; c #444444",
": c #4B4B4B",
"> c #4E4E4E",
", c gray32",
"< c gray33",
"1 c #5B5B5B",
"2 c gray37",
"3 c #626262",
"4 c #656565",
"5 c DimGray",
"6 c #6F6F6F",
"7 c gray44",
"8 c #747474",
"9 c gray47",
"0 c #7E7E7E",
"q c #838383",
"w c gray52",
"e c #8B8B8B",
"r c #8E8E8E",
"t c #909090",
"y c #979797",
"u c #9B9B9B",
"i c gray61",
"p c #A0A0A0",
"a c #A7A7A7",
"s c #A9A9A9",
"d c #AEAEAE",
"f c gray69",
"g c #B6B6B6",
"h c gray72",
"j c gray",
"k c #C0C0C0",
"l c #C6C6C6",
"z c #C8C8C8",
"x c gray80",
"c c #D0D0D0",
"v c #D7D7D7",
/* pixels */
"O$;<<;%o.&:;-=%O#-:>;&@oo#$$$$#o",
"=8dhkh7$o4asdp2-;iffda8%$1etyi6%",
":ihhhja*#ejhjlj<:ahhhjz2=yhhjzh-",
"=9dhhg8%$eggggj5:ushhhf>>pgggga-",
"#:9aa7:O@8ppt06:;8eeeq1@&eppie1$",
"&-:>>;%oO=,,:;;*%-;;=&+ +:<,:=$$",
"q6<=#@-23:&o@-;:,242:*@=><<;#o;8",
"hjk9&%8glg3%:0yadhjzj5;9fjls>#7h",
"hhzf;=thjls;2dhhhhhjx0;wdhjz1#8h",
"aap8%%9sfa8&-yfgggfdi<%3psse=+4a",
"2<:$ X=11>=o#2880qq5:@.*12,*OO;2",
"#==*-*$@o@%&*::&$&-=&&%&-=O$**=&",
"=1tpfgi1$:6eyat:X&<48eety6%,ryiw",
":9sghhla:5fhhkc0@=yghhhhxy*1sfjz",
"-4ppapt2&1isfgh5O$5rytttr3$;9yii",
"#*,,>;*#@-,<135-.X&*=*%%*$.X%-;-",
"*===%X*,32;OX$;;==---&X+-=$@+@@O",
"<tui4=5dhkt=.*5taafhd8&=9rw0874;",
"1sjxr:yfhzcq&>pghhjzva*;ighhhkc3",
">isf8:tshjxp:-easdfgku&-radgffa,",
":586;#1qew6;+@:,,,<<<>++:3432,;%",
";;$%%#=;*$#$&-=@+@@oX#**&%%#$--=",
"i3$=50w0-+-6ypq2232:%2yt064;=6pp",
"ze;4fhjz7*2fhhhjxcl5>yhhhkz8<pgh",
"fq:easdgw-7sghhhhky:2ppssps7>tas",
"5>=<4554:$<etyyyr7;#:,:;:;;&$-<3",
"&;::-#&-*%=::-=*&**&-*#X #=*%#Oo",
"&0ff8==4qe051:*++,qtte8;o=qe06,$",
"-yhlx8-4shhhhjs1=qghhjcs--uhhkh<",
"-ufhls,;yshhhjx9-wsfghkx1&8dhhz4",
"-qeq5,-@2ertuai1%<wypaga>X>tpap,",
"#**&$+oX$*=-;;-#o@*;,,,:#.%:::;%"
};
